<?xml version="1.0" encoding="UTF-8"?>
<svg xmlns="http://www.w3.org/2000/svg" version="1.1" viewBox="0 0 360 360">
  <defs>
    <style>
      .cls-1 {
        fill: #fff;
      }
    </style>
  </defs>
  <!-- Generator: Adobe Illustrator 28.6.0, SVG Export Plug-In . SVG Version: 1.2.0 Build 709)  -->
  <g>
    <g id="Layer_1">
      <circle class="cls-1" cx="180" cy="180" r="180"/>
      <g id="Layer_1-2" data-name="Layer_1">
        <path d="M209,153.5c15.2-2,11.1,24.4,19.4,28.2,7.1,3.3,19.7-13.2,24.1-11.1,9,4.3-15.5,18.7-21.3,19-14.8.7-16.5-24.6-18.8-28-2-3-9.8,3-11.6,5.1-9.8,11.4-.5,27.7-9.9,25.7-4.9-1-1.1-13-3.2-16.2-6.4,7.2-12.8,14.4-19.2,21.5-.9,2.9,3.1,27.2-8.3,42.6-5.3,7.1-19,15.6-25.9,6.5-12.5-16.4,15.7-41.5,26.9-51.9-.3-8.2-.6-16.4-.9-24.5-11.7-1.2-41.4-.3-49.8-2.1-7.9-1.7-4.5-7.5-1.4-7.9,5.9.6,11.7,1.2,17.6,1.9,9.9.3,19.8.6,29.6.9,7.4.1,12.8-3.6,12.7,3.9-3,4.5-1.1,14.2-1.2,20.6,5.2-5.8,10.3-11.6,15.5-17.4,6.5-9.4,4.1-13.6,7.2-15.1,4-2,6.8,1.6,5.6,6,3-2.9,8.8-7.3,13-7.9h0v.2ZM160.8,204.9c-7.3,7-24.5,24-22.4,34.5.9,4.3,3.6,4.7,7.2,3.5,13.1-4.7,17-25.8,15.3-38h-.1Z"/>
      </g>
    </g>
  </g>
</svg>