<svg width="21" height="20" viewBox="0 0 21 20" fill="none" xmlns="http://www.w3.org/2000/svg">
<g id="linkedin--network-linkedin-professional">
<g id="linkedin--network-linkedin-professional_2">
<path id="Vector" d="M5.6052 2.52433C5.60905 3.0183 5.41839 3.49394 5.07442 3.8485C4.73046 4.20304 4.2608 4.40803 3.76695 4.41916C3.27412 4.40107 2.80708 4.19436 2.46232 3.8417C2.11758 3.48906 1.92147 3.01746 1.91455 2.52433C1.93598 2.0439 2.13928 1.58957 2.48326 1.25347C2.82723 0.917374 3.28615 0.724645 3.76695 0.714355C4.24636 0.724837 4.70365 0.918044 5.04533 1.25448C5.38702 1.59091 5.5873 2.04516 5.6052 2.52433ZM2.11252 7.78458C2.11252 6.69577 2.8054 6.86546 3.76695 6.86546C4.7285 6.86546 5.40725 6.69577 5.40725 7.78458V18.3899C5.40725 19.4929 4.71436 19.2666 3.76695 19.2666C2.81955 19.2666 2.11252 19.4929 2.11252 18.3899V7.78458Z" stroke="black" stroke-linecap="round" stroke-linejoin="round"/>
<path id="Vector_2" d="M8.26367 7.78478C8.26367 7.17674 8.48991 6.95049 8.84343 6.87979C9.19694 6.80908 10.413 6.87979 10.8372 6.87979C11.2614 6.87979 11.4311 7.57266 11.417 8.09586C11.7799 7.60886 12.2616 7.22312 12.8162 6.97554C13.3708 6.72795 13.9796 6.62682 14.5845 6.68182C15.1784 6.64551 15.7734 6.73456 16.3307 6.94318C16.8878 7.15179 17.3951 7.47532 17.8191 7.89274C18.2432 8.31015 18.5747 8.81211 18.7921 9.36601C19.0095 9.91991 19.1079 10.5133 19.0811 11.1078V18.3477C19.0811 19.4507 18.4024 19.2244 17.4408 19.2244C16.4792 19.2244 15.8005 19.4507 15.8005 18.3477V12.6915C15.8254 12.4004 15.7874 12.1074 15.6889 11.8323C15.5905 11.5572 15.4339 11.3065 15.2301 11.0972C15.0262 10.888 14.7797 10.7251 14.5072 10.6195C14.2348 10.514 13.9428 10.4683 13.6512 10.4856C13.3609 10.4782 13.0723 10.5326 12.8046 10.6451C12.5369 10.7576 12.2962 10.9258 12.0983 11.1383C11.9005 11.3509 11.75 11.603 11.6569 11.8781C11.5639 12.1532 11.5303 12.4449 11.5584 12.7339V18.3901C11.5584 19.4931 10.8655 19.2668 9.90396 19.2668C8.94241 19.2668 8.26367 19.4931 8.26367 18.3901V7.78478Z" stroke="black" stroke-linecap="round" stroke-linejoin="round"/>
</g>
</g>
</svg>
