<?xml version="1.0" encoding="UTF-8"?>
<svg xmlns="http://www.w3.org/2000/svg" version="1.1" viewBox="0 0 360 360">
  <defs>
    <style>
      .cls-1 {
        fill: #eae8e2;
      }

      .cls-2 {
        fill: #fff;
      }

      .cls-3 {
        fill: #4b7766;
      }
    </style>
  </defs>
  <!-- Generator: Adobe Illustrator 28.7.1, SVG Export Plug-In . SVG Version: 1.2.0 Build 142)  -->
  <g>
    <g id="Layer_1">
      <circle class="cls-2" cx="180" cy="180" r="180"/>
      <g id="Layer_1-2" data-name="Layer_1">
        <g>
          <g>
            <path class="cls-3" d="M69.4,180.2v-4.5h11.6v4.2c0,4.4,2.1,6.2,5.6,6.2s5.3-2.3,5.3-6v-35.9h12.7v36.1c0,4.6-1.2,8.4-3.7,11.2-2.9,3.2-7.6,5.1-13.6,5.1-12.2,0-18-6.6-18-16.4h0Z"/>
            <path class="cls-3" d="M138.7,144.2h13.1l18.6,51.5h-13.4l-3-9.3h-18l-3,9.3h-12.8l18.5-51.5h0ZM151,177.2l-3.9-12.5c-.9-2.7-2-7.3-2-7.3h-.1s-1.2,4.6-2.1,7.3l-4,12.5h12.1Z"/>
          </g>
          <g>
            <path class="cls-3" d="M185.7,164.4h12.8l15.3,25.9c.8,1.4,3.5,6.6,3.5,6.6h.1s-.1-6.2-.1-8v-24.4h12.5v51.5h-12.8l-15.1-25.5c-.9-1.4-3.7-6.9-3.7-6.9h-.1s.1,6.6.1,8.4v24h-12.5v-51.5h0Z"/>
            <path class="cls-3" d="M251.2,164.4h39v10.5h-26.3v9.2h22.5v9.9h-22.5v11h26.7v10.8h-39.5v-51.5h0Z"/>
          </g>
          <rect class="cls-1" x="69.4" y="204.8" width="101" height="11"/>
          <rect class="cls-1" x="185.7" y="144.2" width="105" height="11"/>
        </g>
      </g>
    </g>
  </g>
</svg>