<?xml version="1.0" encoding="UTF-8"?>
<svg xmlns="http://www.w3.org/2000/svg" version="1.1" viewBox="0 0 360 360">
  <!-- Generator: Adobe Illustrator 28.7.1, SVG Export Plug-In . SVG Version: 1.2.0 Build 142)  -->
  <g>
    <g id="Layer_1">
      <path d="M179.99,67.7c61.49-.25,112.11,50.03,112.28,111.53.17,62.5-49.56,112.87-111.63,113.06-62.72.2-112.76-49.62-112.91-112.42-.15-61.82,50-111.92,112.25-112.18ZM180.17,74.14c-57.46-.42-105.64,46.88-106.05,104.14-.42,59.15,46.16,107.18,104.42,107.67,58.9.5,106.85-46.32,107.33-104.79.48-59.04-46.48-106.59-105.71-107.03Z" fill="#4b7766" stroke="#4b7766" stroke-miterlimit="10"/>
      <path d="M180.17,74.14c59.23.44,106.19,47.99,105.71,107.03-.48,58.47-48.43,105.28-107.33,104.79-58.27-.49-104.85-48.52-104.42-107.67.41-57.26,48.58-104.56,106.05-104.14ZM180,249.95c3.48-.35,6.98-.54,10.43-1.08,27.67-4.3,50.24-30.75,49.76-58.25-.04-2.07-.51-3.93-3.02-4.07-2.51-.14-3.2,1.58-3.39,3.7-.25,2.85-.39,5.72-.85,8.54-3.99,24.56-25.52,43.63-50.2,44.53-26.27.97-49.19-16.07-54.96-41.06-.92-4-1.06-8.18-1.55-12.28-.24-2.01-1.03-3.53-3.34-3.44-2.33.09-2.95,1.72-3.03,3.72-.02.42.03.85.04,1.27,1.09,32.57,27.51,58.17,60.11,58.43ZM159.05,139.03c.12-4.16-.89-8.33-3.42-12.04-4.03-5.93-10.72-6.1-15.07-.43-5.07,6.6-4.98,18.83.18,25.39,4.12,5.23,10.06,5.34,14.27.14,3-3.69,4.06-8.07,4.03-13.06ZM222.23,140c0-5.83-1.31-10.26-3.71-13.42-4.27-5.61-10.69-5.56-14.88.12-4.95,6.72-4.87,18.53.18,25.13,4.04,5.29,10.01,5.47,14.27.37,3.15-3.77,4.09-8.27,4.14-12.2Z" fill="none" stroke="#4b7766" stroke-miterlimit="10"/>
      <path d="M180,249.95c-32.6-.26-59.02-25.85-60.11-58.43-.01-.42-.06-.85-.04-1.27.08-1.99.7-3.62,3.03-3.72,2.31-.09,3.1,1.43,3.34,3.44.49,4.1.63,8.28,1.55,12.28,5.78,24.99,28.69,42.02,54.96,41.06,24.68-.91,46.21-19.97,50.2-44.53.46-2.82.6-5.69.85-8.54.19-2.12.88-3.84,3.39-3.7,2.51.14,2.98,2.01,3.02,4.07.48,27.5-22.08,53.95-49.76,58.25-3.45.54-6.95.73-10.43,1.08Z" fill="#4b7766" stroke="#4b7766" stroke-miterlimit="10"/>
      <path d="M159.05,139.03c.03,4.99-1.04,9.36-4.03,13.06-4.22,5.19-10.15,5.09-14.27-.14-5.16-6.56-5.25-18.79-.18-25.39,4.35-5.67,11.04-5.49,15.07.43,2.53,3.71,3.54,7.88,3.42,12.04Z" fill="#4b7766" stroke="#4b7766" stroke-miterlimit="10"/>
      <path d="M222.23,140c-.04,3.93-.99,8.43-4.14,12.2-4.26,5.1-10.23,4.92-14.27-.37-5.05-6.6-5.13-18.41-.18-25.13,4.18-5.68,10.61-5.73,14.88-.12,2.4,3.15,3.7,7.58,3.71,13.42Z" fill="#4b7766" stroke="#4b7766" stroke-miterlimit="10"/>
    </g>
  </g>
</svg>